<mxfile host="app.diagrams.net" modified="2022-02-11T08:07:56.751Z" agent="5.0 (Macintosh; Intel Mac OS X 10_15_7) AppleWebKit/537.36 (KHTML, like Gecko) Chrome/98.0.4758.80 Safari/537.36" etag="kHlEer5AV1HhTVa_pNLB" version="16.2.4" type="github">
  <diagram id="G2syO30X04tpjp3x_CLs" name="Page-1">
    <mxGraphModel dx="1425" dy="796" grid="1" gridSize="10" guides="1" tooltips="1" connect="1" arrows="1" fold="1" page="1" pageScale="1" pageWidth="827" pageHeight="1169" math="0" shadow="0">
      <root>
        <mxCell id="0" />
        <mxCell id="1" parent="0" />
        <mxCell id="qTBHXDRIgLrjzYKgUwC6-150" value="" style="rounded=1;whiteSpace=wrap;html=1;dashed=1;" parent="1" vertex="1">
          <mxGeometry x="331" y="60" width="230" height="440" as="geometry" />
        </mxCell>
        <mxCell id="qTBHXDRIgLrjzYKgUwC6-25" value="" style="group" parent="1" vertex="1" connectable="0">
          <mxGeometry x="80" y="120" width="366" height="410" as="geometry" />
        </mxCell>
        <mxCell id="qTBHXDRIgLrjzYKgUwC6-111" style="edgeStyle=orthogonalEdgeStyle;rounded=0;orthogonalLoop=1;jettySize=auto;html=1;exitX=0.5;exitY=1;exitDx=0;exitDy=0;entryX=0.5;entryY=0;entryDx=0;entryDy=0;" parent="qTBHXDRIgLrjzYKgUwC6-25" source="qTBHXDRIgLrjzYKgUwC6-3" target="qTBHXDRIgLrjzYKgUwC6-109" edge="1">
          <mxGeometry relative="1" as="geometry" />
        </mxCell>
        <mxCell id="qTBHXDRIgLrjzYKgUwC6-3" value="&lt;font style=&quot;font-size: 18px&quot; face=&quot;Times New Roman&quot;&gt;FC&amp;nbsp;&lt;/font&gt;&lt;span style=&quot;font-family: &amp;#34;times new roman&amp;#34; ; font-size: 18px&quot;&gt;&amp;nbsp;(with ReLU)&lt;/span&gt;" style="rounded=1;whiteSpace=wrap;html=1;fillColor=#dae8fc;strokeColor=#6c8ebf;" parent="qTBHXDRIgLrjzYKgUwC6-25" vertex="1">
          <mxGeometry x="6.5" y="150" width="159" height="38" as="geometry" />
        </mxCell>
        <mxCell id="qTBHXDRIgLrjzYKgUwC6-13" style="edgeStyle=orthogonalEdgeStyle;rounded=0;orthogonalLoop=1;jettySize=auto;html=1;exitX=0.5;exitY=1;exitDx=0;exitDy=0;" parent="qTBHXDRIgLrjzYKgUwC6-25" source="qTBHXDRIgLrjzYKgUwC6-4" edge="1">
          <mxGeometry relative="1" as="geometry">
            <mxPoint x="86" y="328" as="targetPoint" />
          </mxGeometry>
        </mxCell>
        <mxCell id="qTBHXDRIgLrjzYKgUwC6-4" value="&lt;font style=&quot;font-size: 18px&quot; face=&quot;Times New Roman&quot;&gt;FC&lt;/font&gt;" style="rounded=1;whiteSpace=wrap;html=1;fillColor=#dae8fc;strokeColor=#6c8ebf;" parent="qTBHXDRIgLrjzYKgUwC6-25" vertex="1">
          <mxGeometry x="20" y="238" width="56" height="30" as="geometry" />
        </mxCell>
        <mxCell id="qTBHXDRIgLrjzYKgUwC6-17" style="edgeStyle=orthogonalEdgeStyle;rounded=0;orthogonalLoop=1;jettySize=auto;html=1;exitX=0.5;exitY=1;exitDx=0;exitDy=0;" parent="qTBHXDRIgLrjzYKgUwC6-25" source="qTBHXDRIgLrjzYKgUwC6-3" target="qTBHXDRIgLrjzYKgUwC6-4" edge="1">
          <mxGeometry relative="1" as="geometry" />
        </mxCell>
        <mxCell id="qTBHXDRIgLrjzYKgUwC6-7" style="edgeStyle=orthogonalEdgeStyle;rounded=0;orthogonalLoop=1;jettySize=auto;html=1;exitX=1;exitY=0.5;exitDx=0;exitDy=0;" parent="qTBHXDRIgLrjzYKgUwC6-25" source="qTBHXDRIgLrjzYKgUwC6-109" edge="1">
          <mxGeometry relative="1" as="geometry">
            <mxPoint x="200" y="253" as="targetPoint" />
            <mxPoint x="170" y="253" as="sourcePoint" />
          </mxGeometry>
        </mxCell>
        <mxCell id="qTBHXDRIgLrjzYKgUwC6-6" value="" style="endArrow=classic;html=1;" parent="qTBHXDRIgLrjzYKgUwC6-25" edge="1">
          <mxGeometry width="50" height="50" relative="1" as="geometry">
            <mxPoint x="86" y="38" as="sourcePoint" />
            <mxPoint x="86" y="60" as="targetPoint" />
          </mxGeometry>
        </mxCell>
        <mxCell id="qTBHXDRIgLrjzYKgUwC6-8" style="edgeStyle=orthogonalEdgeStyle;rounded=0;orthogonalLoop=1;jettySize=auto;html=1;exitX=0.5;exitY=1;exitDx=0;exitDy=0;" parent="qTBHXDRIgLrjzYKgUwC6-25" source="qTBHXDRIgLrjzYKgUwC6-3" target="qTBHXDRIgLrjzYKgUwC6-3" edge="1">
          <mxGeometry relative="1" as="geometry" />
        </mxCell>
        <mxCell id="qTBHXDRIgLrjzYKgUwC6-23" value="&lt;font style=&quot;font-size: 18px&quot; face=&quot;Times New Roman&quot;&gt;Backcast&lt;/font&gt;" style="text;html=1;align=center;verticalAlign=middle;resizable=0;points=[];autosize=1;" parent="qTBHXDRIgLrjzYKgUwC6-25" vertex="1">
          <mxGeometry x="46" y="328" width="80" height="20" as="geometry" />
        </mxCell>
        <mxCell id="qTBHXDRIgLrjzYKgUwC6-29" value="&lt;font face=&quot;Times New Roman&quot; style=&quot;font-size: 18px&quot;&gt;Input&lt;/font&gt;" style="text;html=1;align=center;verticalAlign=middle;resizable=0;points=[];autosize=1;" parent="qTBHXDRIgLrjzYKgUwC6-25" vertex="1">
          <mxGeometry x="61" y="18" width="50" height="20" as="geometry" />
        </mxCell>
        <mxCell id="qTBHXDRIgLrjzYKgUwC6-109" value="&lt;font style=&quot;font-size: 18px&quot; face=&quot;Times New Roman&quot;&gt;FC&lt;/font&gt;" style="rounded=1;whiteSpace=wrap;html=1;fillColor=#dae8fc;strokeColor=#6c8ebf;" parent="qTBHXDRIgLrjzYKgUwC6-25" vertex="1">
          <mxGeometry x="100" y="238" width="56" height="30" as="geometry" />
        </mxCell>
        <mxCell id="jIocTKwubXHXdB_Gi2z4-7" value="&lt;font style=&quot;font-size: 18px&quot; face=&quot;Times New Roman&quot;&gt;FC (with ReLU)&lt;/font&gt;" style="rounded=1;whiteSpace=wrap;html=1;fillColor=#dae8fc;strokeColor=#6c8ebf;" vertex="1" parent="qTBHXDRIgLrjzYKgUwC6-25">
          <mxGeometry x="6.5" y="60" width="159" height="38" as="geometry" />
        </mxCell>
        <mxCell id="jIocTKwubXHXdB_Gi2z4-8" value="&lt;font face=&quot;Times New Roman&quot;&gt;&lt;span style=&quot;font-size: 18px&quot;&gt;&lt;br&gt;&lt;/span&gt;&lt;/font&gt;" style="text;html=1;align=center;verticalAlign=middle;resizable=0;points=[];autosize=1;" vertex="1" parent="qTBHXDRIgLrjzYKgUwC6-25">
          <mxGeometry x="76" y="110" width="20" height="20" as="geometry" />
        </mxCell>
        <mxCell id="jIocTKwubXHXdB_Gi2z4-9" value="" style="endArrow=none;dashed=1;html=1;dashPattern=1 3;strokeWidth=3;rounded=0;" edge="1" parent="qTBHXDRIgLrjzYKgUwC6-25">
          <mxGeometry width="50" height="50" relative="1" as="geometry">
            <mxPoint x="85.66" y="135" as="sourcePoint" />
            <mxPoint x="86" y="100" as="targetPoint" />
          </mxGeometry>
        </mxCell>
        <mxCell id="qTBHXDRIgLrjzYKgUwC6-43" value="" style="group" parent="1" vertex="1" connectable="0">
          <mxGeometry x="340" y="360" width="194.29000000000002" height="190" as="geometry" />
        </mxCell>
        <mxCell id="qTBHXDRIgLrjzYKgUwC6-98" value="" style="group" parent="qTBHXDRIgLrjzYKgUwC6-43" vertex="1" connectable="0">
          <mxGeometry x="10" y="20" width="140" height="144" as="geometry" />
        </mxCell>
        <mxCell id="qTBHXDRIgLrjzYKgUwC6-64" value="" style="group" parent="qTBHXDRIgLrjzYKgUwC6-98" vertex="1" connectable="0">
          <mxGeometry width="140" height="144" as="geometry" />
        </mxCell>
        <mxCell id="qTBHXDRIgLrjzYKgUwC6-45" value="&lt;font style=&quot;font-size: 18px&quot; face=&quot;Times New Roman&quot;&gt;Block n&lt;/font&gt;" style="rounded=1;whiteSpace=wrap;html=1;fillColor=#dae8fc;strokeColor=#6c8ebf;" parent="qTBHXDRIgLrjzYKgUwC6-64" vertex="1">
          <mxGeometry x="18.57" y="20" width="121.43" height="60" as="geometry" />
        </mxCell>
        <mxCell id="qTBHXDRIgLrjzYKgUwC6-50" value="â€”" style="ellipse;whiteSpace=wrap;html=1;aspect=fixed;" parent="qTBHXDRIgLrjzYKgUwC6-64" vertex="1">
          <mxGeometry x="70" y="100" width="18.571428571428573" height="18.571428571428573" as="geometry" />
        </mxCell>
        <mxCell id="qTBHXDRIgLrjzYKgUwC6-52" style="edgeStyle=orthogonalEdgeStyle;rounded=0;orthogonalLoop=1;jettySize=auto;html=1;exitX=0.5;exitY=1;exitDx=0;exitDy=0;entryX=0.5;entryY=0;entryDx=0;entryDy=0;" parent="qTBHXDRIgLrjzYKgUwC6-64" edge="1">
          <mxGeometry relative="1" as="geometry">
            <mxPoint x="79.28499999999997" y="80" as="sourcePoint" />
            <mxPoint x="79.28571428571433" y="100" as="targetPoint" />
          </mxGeometry>
        </mxCell>
        <mxCell id="jIocTKwubXHXdB_Gi2z4-10" value="&lt;font face=&quot;Times New Roman&quot;&gt;&lt;span style=&quot;font-size: 18px&quot;&gt;Doubly Residual Structure&amp;nbsp;&lt;/span&gt;&lt;/font&gt;" style="text;html=1;align=center;verticalAlign=middle;resizable=0;points=[];autosize=1;" vertex="1" parent="qTBHXDRIgLrjzYKgUwC6-43">
          <mxGeometry x="-7.849999999999979" y="170" width="210" height="20" as="geometry" />
        </mxCell>
        <mxCell id="qTBHXDRIgLrjzYKgUwC6-24" value="&lt;font style=&quot;font-size: 18px&quot; face=&quot;Times New Roman&quot;&gt;Forecast&lt;/font&gt;" style="text;html=1;align=center;verticalAlign=middle;resizable=0;points=[];autosize=1;" parent="1" vertex="1">
          <mxGeometry x="270" y="353" width="80" height="20" as="geometry" />
        </mxCell>
        <mxCell id="qTBHXDRIgLrjzYKgUwC6-114" style="edgeStyle=orthogonalEdgeStyle;rounded=0;orthogonalLoop=1;jettySize=auto;html=1;exitX=0.5;exitY=0;exitDx=0;exitDy=0;" parent="1" source="qTBHXDRIgLrjzYKgUwC6-45" edge="1">
          <mxGeometry relative="1" as="geometry">
            <mxPoint x="420" y="478" as="targetPoint" />
            <Array as="points">
              <mxPoint x="429" y="390" />
              <mxPoint x="360" y="390" />
              <mxPoint x="360" y="478" />
            </Array>
          </mxGeometry>
        </mxCell>
        <mxCell id="qTBHXDRIgLrjzYKgUwC6-120" value="" style="group" parent="1" vertex="1" connectable="0">
          <mxGeometry x="340" y="204" width="150" height="184" as="geometry" />
        </mxCell>
        <mxCell id="qTBHXDRIgLrjzYKgUwC6-121" value="" style="group" parent="qTBHXDRIgLrjzYKgUwC6-120" vertex="1" connectable="0">
          <mxGeometry x="10" y="20" width="140" height="144" as="geometry" />
        </mxCell>
        <mxCell id="qTBHXDRIgLrjzYKgUwC6-122" value="" style="group" parent="qTBHXDRIgLrjzYKgUwC6-121" vertex="1" connectable="0">
          <mxGeometry width="140" height="144" as="geometry" />
        </mxCell>
        <mxCell id="qTBHXDRIgLrjzYKgUwC6-123" value="&lt;font style=&quot;font-size: 18px&quot; face=&quot;Times New Roman&quot;&gt;Block 2&lt;/font&gt;" style="rounded=1;whiteSpace=wrap;html=1;fillColor=#dae8fc;strokeColor=#6c8ebf;" parent="qTBHXDRIgLrjzYKgUwC6-122" vertex="1">
          <mxGeometry x="18.57" y="20" width="121.43" height="60" as="geometry" />
        </mxCell>
        <mxCell id="qTBHXDRIgLrjzYKgUwC6-124" value="â€”" style="ellipse;whiteSpace=wrap;html=1;aspect=fixed;" parent="qTBHXDRIgLrjzYKgUwC6-122" vertex="1">
          <mxGeometry x="70" y="100" width="18.571428571428573" height="18.571428571428573" as="geometry" />
        </mxCell>
        <mxCell id="qTBHXDRIgLrjzYKgUwC6-125" style="edgeStyle=orthogonalEdgeStyle;rounded=0;orthogonalLoop=1;jettySize=auto;html=1;exitX=0.5;exitY=1;exitDx=0;exitDy=0;entryX=0.5;entryY=0;entryDx=0;entryDy=0;" parent="qTBHXDRIgLrjzYKgUwC6-122" edge="1">
          <mxGeometry relative="1" as="geometry">
            <mxPoint x="79.28499999999997" y="80" as="sourcePoint" />
            <mxPoint x="79.28571428571433" y="100" as="targetPoint" />
          </mxGeometry>
        </mxCell>
        <mxCell id="qTBHXDRIgLrjzYKgUwC6-126" style="edgeStyle=orthogonalEdgeStyle;rounded=0;orthogonalLoop=1;jettySize=auto;html=1;exitX=0.5;exitY=0;exitDx=0;exitDy=0;" parent="1" source="qTBHXDRIgLrjzYKgUwC6-123" edge="1">
          <mxGeometry relative="1" as="geometry">
            <mxPoint x="420" y="334" as="targetPoint" />
            <Array as="points">
              <mxPoint x="429" y="214" />
              <mxPoint x="360" y="214" />
              <mxPoint x="360" y="334" />
            </Array>
          </mxGeometry>
        </mxCell>
        <mxCell id="qTBHXDRIgLrjzYKgUwC6-127" value="" style="group" parent="1" vertex="1" connectable="0">
          <mxGeometry x="340" y="60" width="150" height="184" as="geometry" />
        </mxCell>
        <mxCell id="qTBHXDRIgLrjzYKgUwC6-128" value="" style="group" parent="qTBHXDRIgLrjzYKgUwC6-127" vertex="1" connectable="0">
          <mxGeometry x="10" y="20" width="140" height="144" as="geometry" />
        </mxCell>
        <mxCell id="qTBHXDRIgLrjzYKgUwC6-129" value="" style="group" parent="qTBHXDRIgLrjzYKgUwC6-128" vertex="1" connectable="0">
          <mxGeometry width="140" height="144" as="geometry" />
        </mxCell>
        <mxCell id="qTBHXDRIgLrjzYKgUwC6-130" value="&lt;font style=&quot;font-size: 18px&quot; face=&quot;Times New Roman&quot;&gt;Block 1&lt;/font&gt;" style="rounded=1;whiteSpace=wrap;html=1;fillColor=#dae8fc;strokeColor=#6c8ebf;" parent="qTBHXDRIgLrjzYKgUwC6-129" vertex="1">
          <mxGeometry x="18.57" y="20" width="121.43" height="60" as="geometry" />
        </mxCell>
        <mxCell id="qTBHXDRIgLrjzYKgUwC6-131" value="â€”" style="ellipse;whiteSpace=wrap;html=1;aspect=fixed;" parent="qTBHXDRIgLrjzYKgUwC6-129" vertex="1">
          <mxGeometry x="70" y="100" width="18.571428571428573" height="18.571428571428573" as="geometry" />
        </mxCell>
        <mxCell id="qTBHXDRIgLrjzYKgUwC6-132" style="edgeStyle=orthogonalEdgeStyle;rounded=0;orthogonalLoop=1;jettySize=auto;html=1;exitX=0.5;exitY=1;exitDx=0;exitDy=0;entryX=0.5;entryY=0;entryDx=0;entryDy=0;" parent="qTBHXDRIgLrjzYKgUwC6-129" edge="1">
          <mxGeometry relative="1" as="geometry">
            <mxPoint x="79.28499999999997" y="80" as="sourcePoint" />
            <mxPoint x="79.28571428571433" y="100" as="targetPoint" />
          </mxGeometry>
        </mxCell>
        <mxCell id="qTBHXDRIgLrjzYKgUwC6-139" value="" style="endArrow=classic;html=1;" parent="qTBHXDRIgLrjzYKgUwC6-127" edge="1">
          <mxGeometry width="50" height="50" relative="1" as="geometry">
            <mxPoint x="89" y="-20" as="sourcePoint" />
            <mxPoint x="89.14999999999998" y="40" as="targetPoint" />
          </mxGeometry>
        </mxCell>
        <mxCell id="qTBHXDRIgLrjzYKgUwC6-133" style="edgeStyle=orthogonalEdgeStyle;rounded=0;orthogonalLoop=1;jettySize=auto;html=1;" parent="1" edge="1">
          <mxGeometry relative="1" as="geometry">
            <mxPoint x="421" y="190" as="targetPoint" />
            <Array as="points">
              <mxPoint x="430" y="70" />
              <mxPoint x="361" y="70" />
              <mxPoint x="361" y="190" />
            </Array>
            <mxPoint x="430" y="70" as="sourcePoint" />
          </mxGeometry>
        </mxCell>
        <mxCell id="qTBHXDRIgLrjzYKgUwC6-134" style="edgeStyle=orthogonalEdgeStyle;rounded=0;orthogonalLoop=1;jettySize=auto;html=1;exitX=0.5;exitY=1;exitDx=0;exitDy=0;entryX=0.5;entryY=0;entryDx=0;entryDy=0;" parent="1" source="qTBHXDRIgLrjzYKgUwC6-131" target="qTBHXDRIgLrjzYKgUwC6-123" edge="1">
          <mxGeometry relative="1" as="geometry" />
        </mxCell>
        <mxCell id="qTBHXDRIgLrjzYKgUwC6-135" style="edgeStyle=orthogonalEdgeStyle;rounded=0;orthogonalLoop=1;jettySize=auto;html=1;exitX=0.5;exitY=1;exitDx=0;exitDy=0;entryX=0.5;entryY=0;entryDx=0;entryDy=0;" parent="1" target="qTBHXDRIgLrjzYKgUwC6-45" edge="1">
          <mxGeometry relative="1" as="geometry">
            <mxPoint x="429.0057142857145" y="342.57142857142867" as="sourcePoint" />
            <mxPoint x="429.0049999999999" y="388" as="targetPoint" />
          </mxGeometry>
        </mxCell>
        <mxCell id="qTBHXDRIgLrjzYKgUwC6-151" value="&lt;span style=&quot;font-family: &amp;quot;times new roman&amp;quot;; font-size: 24px;&quot;&gt;Â·Â·Â·&lt;/span&gt;" style="edgeLabel;html=1;align=center;verticalAlign=middle;resizable=0;points=[];labelBackgroundColor=#DAE8FC;" parent="qTBHXDRIgLrjzYKgUwC6-135" vertex="1" connectable="0">
          <mxGeometry x="-0.2694" relative="1" as="geometry">
            <mxPoint as="offset" />
          </mxGeometry>
        </mxCell>
        <mxCell id="qTBHXDRIgLrjzYKgUwC6-137" style="edgeStyle=orthogonalEdgeStyle;rounded=0;orthogonalLoop=1;jettySize=auto;html=1;exitX=0.5;exitY=0;exitDx=0;exitDy=0;" parent="1" source="qTBHXDRIgLrjzYKgUwC6-130" edge="1">
          <mxGeometry relative="1" as="geometry">
            <mxPoint x="429" y="100" as="targetPoint" />
          </mxGeometry>
        </mxCell>
        <mxCell id="qTBHXDRIgLrjzYKgUwC6-138" style="edgeStyle=orthogonalEdgeStyle;rounded=0;orthogonalLoop=1;jettySize=auto;html=1;" parent="1" edge="1">
          <mxGeometry relative="1" as="geometry">
            <mxPoint x="431.28499999999997" y="100" as="targetPoint" />
            <mxPoint x="431.30555555555554" y="100" as="sourcePoint" />
          </mxGeometry>
        </mxCell>
        <mxCell id="qTBHXDRIgLrjzYKgUwC6-140" style="edgeStyle=orthogonalEdgeStyle;rounded=0;orthogonalLoop=1;jettySize=auto;html=1;exitX=1;exitY=0.5;exitDx=0;exitDy=0;entryX=0.5;entryY=0;entryDx=0;entryDy=0;" parent="1" source="qTBHXDRIgLrjzYKgUwC6-130" target="qTBHXDRIgLrjzYKgUwC6-143" edge="1">
          <mxGeometry relative="1" as="geometry">
            <mxPoint x="591" y="270" as="targetPoint" />
          </mxGeometry>
        </mxCell>
        <mxCell id="qTBHXDRIgLrjzYKgUwC6-141" style="edgeStyle=orthogonalEdgeStyle;rounded=0;orthogonalLoop=1;jettySize=auto;html=1;exitX=1;exitY=0.5;exitDx=0;exitDy=0;entryX=0;entryY=0.5;entryDx=0;entryDy=0;" parent="1" source="qTBHXDRIgLrjzYKgUwC6-123" target="qTBHXDRIgLrjzYKgUwC6-143" edge="1">
          <mxGeometry relative="1" as="geometry">
            <mxPoint x="571" y="273.8965517241379" as="targetPoint" />
          </mxGeometry>
        </mxCell>
        <mxCell id="qTBHXDRIgLrjzYKgUwC6-142" style="edgeStyle=orthogonalEdgeStyle;rounded=0;orthogonalLoop=1;jettySize=auto;html=1;exitX=1;exitY=0.5;exitDx=0;exitDy=0;entryX=0.5;entryY=1;entryDx=0;entryDy=0;" parent="1" source="qTBHXDRIgLrjzYKgUwC6-45" target="qTBHXDRIgLrjzYKgUwC6-143" edge="1">
          <mxGeometry relative="1" as="geometry">
            <mxPoint x="591" y="290" as="targetPoint" />
          </mxGeometry>
        </mxCell>
        <mxCell id="qTBHXDRIgLrjzYKgUwC6-147" style="edgeStyle=orthogonalEdgeStyle;rounded=0;orthogonalLoop=1;jettySize=auto;html=1;exitX=1;exitY=0.5;exitDx=0;exitDy=0;" parent="1" source="qTBHXDRIgLrjzYKgUwC6-143" edge="1">
          <mxGeometry relative="1" as="geometry">
            <mxPoint x="581" y="273.8965517241379" as="targetPoint" />
          </mxGeometry>
        </mxCell>
        <mxCell id="qTBHXDRIgLrjzYKgUwC6-143" value="&lt;font style=&quot;font-size: 18px&quot;&gt;+&lt;/font&gt;" style="ellipse;whiteSpace=wrap;html=1;aspect=fixed;" parent="1" vertex="1">
          <mxGeometry x="521" y="259" width="30" height="30" as="geometry" />
        </mxCell>
        <mxCell id="qTBHXDRIgLrjzYKgUwC6-146" style="edgeStyle=orthogonalEdgeStyle;rounded=0;orthogonalLoop=1;jettySize=auto;html=1;exitX=0.5;exitY=1;exitDx=0;exitDy=0;" parent="1" source="qTBHXDRIgLrjzYKgUwC6-50" edge="1">
          <mxGeometry relative="1" as="geometry">
            <mxPoint x="429" y="518" as="targetPoint" />
          </mxGeometry>
        </mxCell>
        <mxCell id="qTBHXDRIgLrjzYKgUwC6-148" value="" style="endArrow=none;dashed=1;html=1;dashPattern=1 3;strokeWidth=2;exitX=0.947;exitY=0.009;exitDx=0;exitDy=0;exitPerimeter=0;" parent="1" edge="1">
          <mxGeometry width="50" height="50" relative="1" as="geometry">
            <mxPoint x="240.98999999999978" y="179.98000000000002" as="sourcePoint" />
            <mxPoint x="391" y="240" as="targetPoint" />
          </mxGeometry>
        </mxCell>
        <mxCell id="qTBHXDRIgLrjzYKgUwC6-149" value="" style="endArrow=none;dashed=1;html=1;dashPattern=1 3;strokeWidth=2;exitX=0.885;exitY=0.997;exitDx=0;exitDy=0;exitPerimeter=0;" parent="1" edge="1">
          <mxGeometry width="50" height="50" relative="1" as="geometry">
            <mxPoint x="230.44999999999982" y="397.3399999999999" as="sourcePoint" />
            <mxPoint x="391" y="310" as="targetPoint" />
          </mxGeometry>
        </mxCell>
        <mxCell id="qTBHXDRIgLrjzYKgUwC6-155" value="" style="endArrow=classic;html=1;" parent="1" target="qTBHXDRIgLrjzYKgUwC6-143" edge="1">
          <mxGeometry width="50" height="50" relative="1" as="geometry">
            <mxPoint x="441" y="360" as="sourcePoint" />
            <mxPoint x="491" y="310" as="targetPoint" />
          </mxGeometry>
        </mxCell>
      </root>
    </mxGraphModel>
  </diagram>
</mxfile>
